<?xml version="1.0" encoding="utf-8"?>
<!-- Generator: Adobe Illustrator 24.3.0, SVG Export Plug-In . SVG Version: 6.00 Build 0)  -->
<svg version="1.1" id="Layer_1" xmlns="http://www.w3.org/2000/svg" xmlns:xlink="http://www.w3.org/1999/xlink" x="0px" y="0px"
	 viewBox="0 0 16 16" style="enable-background:new 0 0 16 16;" xml:space="preserve">
<style type="text/css">
	.st0{fill:#FFFFFF;}
</style>
<g id="Group_9" transform="translate(-135.484 -135.488)">
	<path id="Path_21" class="st0" d="M146.7,143.5c0,1.8-1.4,3.2-3.2,3.2s-3.2-1.4-3.2-3.2s1.4-3.2,3.2-3.2c0,0,0,0,0,0
		C145.2,140.3,146.7,141.7,146.7,143.5z"/>
	<path id="Path_22" class="st0" d="M150.9,137.9c-0.3-0.8-1-1.5-1.8-1.8c-0.6-0.2-1.2-0.3-1.8-0.3c-1,0-1.3-0.1-3.9-0.1
		s-2.9,0-3.9,0.1c-0.6,0-1.2,0.1-1.8,0.3c-0.8,0.3-1.5,1-1.8,1.8c-0.2,0.6-0.3,1.2-0.3,1.8c0,1-0.1,1.3-0.1,3.9s0,2.8,0.1,3.9
		c0,0.6,0.1,1.2,0.3,1.8c0.3,0.8,1,1.5,1.8,1.8c0.6,0.2,1.2,0.3,1.8,0.3c1,0,1.3,0.1,3.9,0.1s2.9,0,3.9-0.1c0.6,0,1.2-0.1,1.8-0.3
		c0.8-0.3,1.5-1,1.8-1.8c0.2-0.6,0.3-1.2,0.3-1.8c0-1,0.1-1.3,0.1-3.9s0-2.9-0.1-3.9C151.2,139,151.1,138.4,150.9,137.9z
		 M143.5,148.4c-2.7,0-4.9-2.2-4.9-4.9s2.2-4.9,4.9-4.9s4.9,2.2,4.9,4.9v0C148.4,146.2,146.2,148.4,143.5,148.4L143.5,148.4z
		 M148.6,139.5c-0.6,0-1.1-0.5-1.1-1.1c0-0.6,0.5-1.1,1.1-1.1c0.6,0,1.1,0.5,1.1,1.1S149.2,139.5,148.6,139.5
		C148.6,139.5,148.6,139.5,148.6,139.5z"/>
</g>
</svg>
